<svg width="128" height="128" viewBox="0 0 128 128" fill="none" xmlns="http://www.w3.org/2000/svg">
<path d="M62.8377 9.5345C63.1598 8.66389 64.3912 8.66389 64.7134 9.53451L78.9505 48.0097C79.0518 48.2834 79.2676 48.4993 79.5413 48.6005L118.017 62.8377C118.887 63.1598 118.887 64.3912 118.017 64.7134L79.5413 78.9505C79.2676 79.0518 79.0518 79.2676 78.9505 79.5413L64.7134 118.017C64.3912 118.887 63.1598 118.887 62.8377 118.017L48.6005 79.5413C48.4993 79.2676 48.2834 79.0518 48.0097 78.9505L9.5345 64.7134C8.66389 64.3912 8.66389 63.1598 9.53451 62.8377L48.0097 48.6005C48.2834 48.4993 48.4993 48.2834 48.6005 48.0097L62.8377 9.5345Z" fill="#FFE793"/>
<path d="M62.8139 21.7246C63.09 20.7572 64.461 20.7572 64.7371 21.7246L72.1844 47.8198C72.3325 48.3388 72.8656 48.6466 73.3891 48.5154L99.7119 41.9173C100.688 41.6727 101.373 42.86 100.673 43.5828L81.7979 63.08C81.4226 63.4677 81.4226 64.0833 81.7979 64.4711L100.673 83.9682C101.373 84.691 100.688 85.8784 99.7119 85.6338L73.3891 79.0356C72.8656 78.9044 72.3325 79.2122 72.1844 79.7312L64.7371 105.826C64.461 106.794 63.09 106.794 62.8139 105.826L55.3667 79.7312C55.2186 79.2122 54.6854 78.9044 54.1619 79.0356L27.8392 85.6338C26.8633 85.8784 26.1778 84.691 26.8775 83.9682L45.7531 64.4711C46.1284 64.0833 46.1284 63.4677 45.7531 63.08L26.8775 43.5828C26.1778 42.86 26.8633 41.6727 27.8392 41.9173L54.1619 48.5154C54.6854 48.6466 55.2186 48.3388 55.3667 47.8198L62.8139 21.7246Z" fill="url(#paint0_linear_30_34)"/>
<defs>
<linearGradient id="paint0_linear_30_34" x1="56.2054" y1="18.3551" x2="63.7755" y2="109.196" gradientUnits="userSpaceOnUse">
<stop stop-color="#EDD685"/>
<stop offset="1" stop-color="#877A4C"/>
</linearGradient>
</defs>
</svg>
