<svg width="128" height="128" viewBox="0 0 128 128" fill="none" xmlns="http://www.w3.org/2000/svg">
<g clip-path="url(#clip0_27_11)">
<path d="M63.6552 7.55482C63.9761 6.68131 65.2116 6.6813 65.5325 7.55482L96.9325 93.0192C97.1723 93.6719 96.6892 94.3641 95.9939 94.3641H33.1938C32.4984 94.3641 32.0154 93.6719 32.2552 93.0192L63.6552 7.55482Z" fill="url(#paint0_linear_27_11)"/>
<path d="M23.5215 41.7129C23.6798 40.7365 25.008 40.558 25.4185 41.4579L54.8042 105.883C55.0827 106.494 54.6927 107.2 54.0276 107.289L13.3128 112.762C12.6478 112.852 12.0851 112.274 12.1925 111.611L23.5215 41.7129Z" fill="#2BAB16"/>
<path d="M106.956 52.2397C107.42 51.3232 108.799 51.6183 108.847 52.6446L111.755 114.641C111.786 115.297 111.189 115.803 110.547 115.666L79.6036 109.042C78.9623 108.904 78.6245 108.197 78.9208 107.612L106.956 52.2397Z" fill="#30B71A"/>
<ellipse cx="62.9534" cy="101.75" rx="26.7839" ry="12.572" fill="url(#paint1_linear_27_11)"/>
<path d="M60.6795 69.3131C61.4765 68.3993 62.8969 68.3993 63.694 69.3131L96.2979 106.696C97.4263 107.99 96.5074 110.01 94.7906 110.01H29.5828C27.866 110.01 26.9471 107.99 28.0756 106.696L60.6795 69.3131Z" fill="#269215"/>
</g>
<defs>
<linearGradient id="paint0_linear_27_11" x1="64.5938" y1="5" x2="64.5932" y2="124.161" gradientUnits="userSpaceOnUse">
<stop stop-color="#39DE1F"/>
<stop offset="1" stop-color="#1F7811"/>
</linearGradient>
<linearGradient id="paint1_linear_27_11" x1="63" y1="137.5" x2="26.5" y2="82" gradientUnits="userSpaceOnUse">
<stop stop-color="#806626"/>
<stop offset="1" stop-color="#1A1408"/>
</linearGradient>
<clipPath id="clip0_27_11">
<rect width="128" height="128" fill="white"/>
</clipPath>
</defs>
</svg>
