<svg width="92" height="92" viewBox="0 0 92 92" fill="none" xmlns="http://www.w3.org/2000/svg">
<rect width="92" height="92" fill="#FFFCF2"/>
<rect width="92" height="92" fill="white"/>
<path d="M46 4.5C46 9.94986 44.9266 15.3464 42.841 20.3814C40.7554 25.4164 37.6986 29.9913 33.8449 33.8449C29.9913 37.6986 25.4164 40.7554 20.3814 42.841C15.3463 44.9266 9.94986 46 4.5 46L4.5 4.5H46Z" fill="#FFF8E8"/>
<path d="M4.5 46C9.94986 46 15.3464 47.0734 20.3814 49.159C25.4164 51.2446 29.9913 54.3014 33.8449 58.1551C37.6986 62.0087 40.7554 66.5836 42.841 71.6186C44.9266 76.6537 46 82.0501 46 87.5L4.5 87.5L4.5 46Z" fill="#FFF8E8"/>
<path d="M87.5 46C82.0501 46 76.6536 44.9266 71.6186 42.841C66.5836 40.7554 62.0087 37.6986 58.1551 33.8449C54.3014 29.9913 51.2446 25.4164 49.159 20.3814C47.0734 15.3463 46 9.94986 46 4.5L87.5 4.5V46Z" fill="#FFF8E8"/>
<path d="M46 87.5C46 82.0501 47.0734 76.6536 49.159 71.6186C51.2446 66.5836 54.3014 62.0087 58.1551 58.1551C62.0087 54.3014 66.5836 51.2446 71.6186 49.159C76.6537 47.0734 82.0501 46 87.5 46L87.5 87.5H46Z" fill="#FFF8E8"/>
<path d="M45.5938 40.9417C45.9529 40.1722 47.0471 40.1722 47.4062 40.9417L48.7327 43.784C48.832 43.9969 49.0031 44.168 49.216 44.2673L52.0583 45.5938C52.8278 45.9529 52.8278 47.0471 52.0583 47.4062L49.216 48.7327C49.0031 48.832 48.832 49.0031 48.7327 49.216L47.4062 52.0583C47.0471 52.8278 45.9529 52.8278 45.5938 52.0583L44.2673 49.216C44.168 49.0031 43.9969 48.832 43.784 48.7327L40.9417 47.4062C40.1722 47.0471 40.1722 45.9529 40.9417 45.5938L43.784 44.2673C43.9969 44.168 44.168 43.9969 44.2673 43.784L45.5938 40.9417Z" fill="#F0F8FF"/>
</svg>
